<?xml version="1.0" encoding="utf-8"?>
<!-- Generator: Adobe Illustrator 25.4.1, SVG Export Plug-In . SVG Version: 6.00 Build 0)  -->
<svg version="1.1" xmlns="http://www.w3.org/2000/svg" xmlns:xlink="http://www.w3.org/1999/xlink" x="0px" y="0px"
	 viewBox="0 0 1600 400" style="enable-background:new 0 0 1600 400;" xml:space="preserve">
<style type="text/css">
	.st0{opacity:0.6;}
	.st1{fill:#FFFFFF;}
	.st2{fill:#90949E;}
	.st3{opacity:0.5;}
</style>
<g id="图层_6">
	<g class="st0">
		<g>
			<path class="st1" d="M-6.56,174.04c117.37-34.09,239.6-10.18,356.98,10.86c58.29,10.45,116.85,20.59,176.08,23.64
				c50.22,2.59,99.56-1.42,148.78-11.52c45.22-9.28,89.68-21.95,135.01-30.73c53.47-10.35,107.75-14.62,162.13-10.77
				c57.35,4.06,111.24,20.57,166.28,35.89c52.99,14.75,106.4,23.65,161.45,16.83c58.64-7.26,115.08-26.16,173.18-36.39
				c49.76-8.76,103.44-15.98,153.47-5.31c11.49,2.45,22.66,6.08,33.15,11.4c0.57,0.29,1.08-0.57,0.5-0.86
				c-42.4-21.48-95.19-18.27-140.97-13.03c-55.16,6.31-108.38,20.83-162.43,32.89c-31.3,6.98-63.03,12.61-95.19,12.91
				c-28.6,0.26-57.02-3.51-84.9-9.73c-53.25-11.88-104.53-31.27-158.47-40.26c-54.79-9.13-111.33-8.84-166.31-1.49
				c-46.92,6.28-92.7,18.16-138.69,29.07c-46.96,11.14-94.3,20.11-142.71,20.92c-62.02,1.04-123.7-7.71-184.67-18.18
				C271.15,170.44,152.72,142,35.82,163.02c-14.39,2.59-28.61,5.97-42.65,10.05C-7.45,173.25-7.18,174.22-6.56,174.04L-6.56,174.04z
				"/>
		</g>
	</g>
	<g class="st0">
		<g>
			<path class="st1" d="M-10.01,237.93c109.48,13.22,214.31-38.58,319.11-60.9c55.17-11.75,112.43-15.4,168.71-12.57
				c50.01,2.51,99.4,10.8,148.62,19.6c52.58,9.4,105.27,19.96,158.84,20.91c58.54,1.03,116.69-6.94,174.63-14.33
				c58.43-7.45,117.26-14.17,176.26-10.99c61.17,3.29,121.88,14.32,181.96,25.75c116.02,22.09,233.68,49.16,352.58,39.61
				c13.85-1.11,27.64-2.77,41.37-4.89c0.63-0.1,0.36-1.06-0.27-0.96c-120.69,18.59-241.68-5.29-360-28.27
				c-58.21-11.31-116.54-22.55-175.54-28.85c-58.9-6.29-117.18-4.02-175.93,2.66c-58.01,6.6-115.77,16.01-174.16,18.65
				c-29.54,1.33-59.19,0.89-88.6-2.32c-27.47-2.99-54.78-7.97-81.98-12.78c-47.01-8.31-93.96-17.35-141.51-22.06
				c-54.39-5.39-109.07-4.53-163.26,2.66c-108.87,14.45-210.77,68.13-321.57,70.09c-13.12,0.23-26.22-0.44-39.25-2.02
				C-10.65,236.85-10.64,237.85-10.01,237.93L-10.01,237.93z"/>
		</g>
	</g>
</g>
<g id="图层_4">
	<g class="st0">
		<g>
			<path class="st2" d="M-38.37,193.98c117.03-30.4,237.23-14.88,354.62,4.62c55.41,9.2,110.77,19.12,166.7,24.71
				c58.57,5.85,116.94,4.99,175.48-0.88c121.51-12.18,240.55-41.93,362.25-52.58c56.77-4.97,113.81-5.13,170.57,0.05
				c49.07,4.47,97.64,12.87,145.89,22.75c83.93,17.19,167.85,38.68,254.09,38.47c11.1-0.03,22.19-0.42,33.27-1.13
				c0.64-0.04,0.64-1.04,0-1c-88.1,5.61-174-13.42-259.61-31.57c-99.09-21.01-198.47-36.06-300.1-31.52
				c-123.21,5.5-243.52,35.01-365.5,50.8c-59.11,7.65-118.77,12.13-178.35,8.64c-58.21-3.41-115.84-12.89-173.28-22.51
				c-112.8-18.89-228.04-38.79-342.21-19.34c-14.83,2.53-29.52,5.73-44.07,9.51C-39.26,193.18-38.99,194.14-38.37,193.98
				L-38.37,193.98z"/>
		</g>
	</g>
	<g class="st0">
		<g>
			<path class="st2" d="M-15.37,229.98c103.05-28.36,210.94-22.53,316.27-13.78c106.6,8.86,212.63,19.67,319.36,6.4
				c106.74-13.26,210.63-42.29,316.37-61.2c105.93-18.94,213.85-25.77,321.32-20.17c107.26,5.59,213.89,23.4,317.08,53.23
				c12.66,3.66,25.26,7.51,37.82,11.52c0.61,0.2,0.88-0.77,0.27-0.96c-101.48-32.38-206.52-53.19-312.69-61.93
				c-105.62-8.7-212.22-5.51-317.1,9.72c-108.32,15.73-213.92,45.68-321.97,62.93c-54.14,8.64-108.61,13.48-163.46,12.66
				c-53.61-0.8-107.08-5.46-160.47-10.08C232.82,209.27,125.91,199.4,22,220.08c-12.65,2.52-25.2,5.52-37.63,8.94
				C-16.25,229.19-15.99,230.15-15.37,229.98L-15.37,229.98z"/>
		</g>
	</g>
</g>
<g id="图层_5">
	<g class="st3">
		<g>
			<path class="st2" d="M-9.63,272.98c59.95,14.66,122.74,4.76,182.65-5.04c71.43-11.69,142.64-24.1,215.31-22.83
				c57.43,1,114.03,8.75,170.96,15.54c65.67,7.84,131.35,10.15,197.41,6.31c120.8-7.02,240.72-28.35,359.17-52.17
				c143.29-28.81,291.08-33.89,434.94-5.09c19,3.8,37.86,8.24,56.57,13.28c0.62,0.17,0.89-0.8,0.27-0.96
				c-140.39-37.78-291.08-42.06-434.35-19.08c-36.37,5.83-72.36,13.97-108.55,20.85c-34.71,6.6-69.51,12.8-104.39,18.42
				c-55.74,8.98-111.75,16.57-168.02,21.24c-70.48,5.85-140.98,6.12-211.33-1.33c-55.53-5.88-110.65-14.69-166.5-17.19
				c-60.68-2.71-120.66,2.6-180.59,12.01c-65.27,10.25-131.71,25.87-198.18,21.81c-15.2-0.93-30.27-3.1-45.07-6.72
				C-9.99,271.86-10.26,272.83-9.63,272.98L-9.63,272.98z"/>
		</g>
	</g>
</g>
</svg>
